<svg width="12" height="12" viewBox="0 0 12 12" fill="none" xmlns="http://www.w3.org/2000/svg">
<path d="M7.2 7.2C7.37 7.2 7.5125 7.1425 7.6275 7.0275C7.7425 6.9125 7.8 6.77 7.8 6.6V5.4H9C9.17 5.4 9.3125 5.3425 9.4275 5.2275C9.5425 5.1125 9.6 4.97 9.6 4.8C9.6 4.63 9.5425 4.4875 9.4275 4.3725C9.3125 4.2575 9.17 4.2 9 4.2H7.8V3C7.8 2.83 7.7425 2.6875 7.6275 2.5725C7.5125 2.4575 7.37 2.4 7.2 2.4C7.03 2.4 6.8875 2.4575 6.7725 2.5725C6.6575 2.6875 6.6 2.83 6.6 3V4.2H5.4C5.23 4.2 5.0875 4.2575 4.9725 4.3725C4.8575 4.4875 4.8 4.63 4.8 4.8C4.8 4.97 4.8575 5.1125 4.9725 5.2275C5.0875 5.3425 5.23 5.4 5.4 5.4H6.6V6.6C6.6 6.77 6.6575 6.9125 6.7725 7.0275C6.8875 7.1425 7.03 7.2 7.2 7.2ZM3.6 9.6C3.27 9.6 2.9875 9.4825 2.7525 9.2475C2.5175 9.0125 2.4 8.73 2.4 8.4V1.2C2.4 0.87 2.5175 0.5875 2.7525 0.3525C2.9875 0.1175 3.27 0 3.6 0H10.8C11.13 0 11.4125 0.1175 11.6475 0.3525C11.8825 0.5875 12 0.87 12 1.2V8.4C12 8.73 11.8825 9.0125 11.6475 9.2475C11.4125 9.4825 11.13 9.6 10.8 9.6H3.6ZM3.6 8.4H10.8V1.2H3.6V8.4ZM1.2 12C0.87 12 0.5875 11.8825 0.3525 11.6475C0.1175 11.4125 0 11.13 0 10.8V3C0 2.83 0.0575 2.6875 0.1725 2.5725C0.2875 2.4575 0.43 2.4 0.6 2.4C0.77 2.4 0.9125 2.4575 1.0275 2.5725C1.1425 2.6875 1.2 2.83 1.2 3V10.8H9C9.17 10.8 9.3125 10.8575 9.4275 10.9725C9.5425 11.0875 9.6 11.23 9.6 11.4C9.6 11.57 9.5425 11.7125 9.4275 11.8275C9.3125 11.9425 9.17 12 9 12H1.2Z" fill="white"/>
</svg>
