<svg width="15" height="15" viewBox="0 0 15 15" fill="none" xmlns="http://www.w3.org/2000/svg">
<path d="M7.5 15C6.4625 15 5.4875 14.8031 4.575 14.4094C3.6625 14.0156 2.86875 13.4813 2.19375 12.8063C1.51875 12.1313 0.984375 11.3375 0.590625 10.425C0.196875 9.5125 0 8.5375 0 7.5C0 6.4625 0.196875 5.4875 0.590625 4.575C0.984375 3.6625 1.51875 2.86875 2.19375 2.19375C2.86875 1.51875 3.6625 0.984375 4.575 0.590625C5.4875 0.196875 6.4625 0 7.5 0C8.5375 0 9.5125 0.196875 10.425 0.590625C11.3375 0.984375 12.1313 1.51875 12.8063 2.19375C13.4813 2.86875 14.0156 3.6625 14.4094 4.575C14.8031 5.4875 15 6.4625 15 7.5C15 8.5375 14.8031 9.5125 14.4094 10.425C14.0156 11.3375 13.4813 12.1313 12.8063 12.8063C12.1313 13.4813 11.3375 14.0156 10.425 14.4094C9.5125 14.8031 8.5375 15 7.5 15ZM7.5 13.5C9.175 13.5 10.5938 12.9188 11.7563 11.7563C12.9188 10.5938 13.5 9.175 13.5 7.5C13.5 5.825 12.9188 4.40625 11.7563 3.24375C10.5938 2.08125 9.175 1.5 7.5 1.5C5.825 1.5 4.40625 2.08125 3.24375 3.24375C2.08125 4.40625 1.5 5.825 1.5 7.5C1.5 9.175 2.08125 10.5938 3.24375 11.7563C4.40625 12.9188 5.825 13.5 7.5 13.5ZM4.5 9.75V8.5125C4.5 8.4125 4.51875 8.31563 4.55625 8.22188C4.59375 8.12813 4.65 8.04375 4.725 7.96875L8.64375 4.06875C8.75625 3.95625 8.88125 3.875 9.01875 3.825C9.15625 3.775 9.29375 3.75 9.43125 3.75C9.58125 3.75 9.725 3.77813 9.8625 3.83438C10 3.89063 10.125 3.975 10.2375 4.0875L10.9313 4.78125C11.0312 4.89375 11.1094 5.01875 11.1656 5.15625C11.2219 5.29375 11.25 5.43125 11.25 5.56875C11.25 5.70625 11.225 5.84688 11.175 5.99063C11.125 6.13438 11.0438 6.2625 10.9313 6.375L7.03125 10.275C6.95625 10.35 6.87188 10.4062 6.77813 10.4438C6.68438 10.4813 6.5875 10.5 6.4875 10.5H5.25C5.0375 10.5 4.85938 10.4281 4.71563 10.2844C4.57188 10.1406 4.5 9.9625 4.5 9.75ZM5.625 9.375H6.3375L8.60625 7.0875L8.26875 6.73125L7.9125 6.39375L5.625 8.6625V9.375ZM8.26875 6.73125L7.9125 6.39375L8.60625 7.0875L8.26875 6.73125Z" fill="white"/>
</svg>
