<svg width="17" height="16" viewBox="0 0 17 16" fill="none" xmlns="http://www.w3.org/2000/svg">
<path d="M16 8.99994H14C13.7167 8.99994 13.4792 8.9041 13.2875 8.71244C13.0958 8.52077 13 8.28327 13 7.99994C13 7.7166 13.0958 7.4791 13.2875 7.28744C13.4792 7.09577 13.7167 6.99994 14 6.99994H16C16.2833 6.99994 16.5208 7.09577 16.7125 7.28744C16.9042 7.4791 17 7.7166 17 7.99994C17 8.28327 16.9042 8.52077 16.7125 8.71244C16.5208 8.9041 16.2833 8.99994 16 8.99994ZM11.6 12.7999C11.7667 12.5666 11.9833 12.4333 12.25 12.3999C12.5167 12.3666 12.7667 12.4333 13 12.5999L14.6 13.7999C14.8333 13.9666 14.9667 14.1833 15 14.4499C15.0333 14.7166 14.9667 14.9666 14.8 15.1999C14.6333 15.4333 14.4167 15.5666 14.15 15.5999C13.8833 15.6333 13.6333 15.5666 13.4 15.3999L11.8 14.1999C11.5667 14.0333 11.4333 13.8166 11.4 13.5499C11.3667 13.2833 11.4333 13.0333 11.6 12.7999ZM14.6 2.19993L13 3.39994C12.7667 3.5666 12.5167 3.63327 12.25 3.59993C11.9833 3.5666 11.7667 3.43327 11.6 3.19994C11.4333 2.9666 11.3667 2.7166 11.4 2.44993C11.4333 2.18327 11.5667 1.9666 11.8 1.79993L13.4 0.599935C13.6333 0.433268 13.8833 0.366602 14.15 0.399935C14.4167 0.433268 14.6333 0.566602 14.8 0.799935C14.9667 1.03327 15.0333 1.28327 15 1.54993C14.9667 1.8166 14.8333 2.03327 14.6 2.19993ZM4 10.9999H1C0.716667 10.9999 0.479167 10.9041 0.2875 10.7124C0.0958333 10.5208 0 10.2833 0 9.99994V5.99993C0 5.7166 0.0958333 5.4791 0.2875 5.28743C0.479167 5.09577 0.716667 4.99993 1 4.99993H4L7.3 1.69993C7.61667 1.38327 7.97917 1.31243 8.3875 1.48743C8.79583 1.66243 9 1.97493 9 2.42493V13.5749C9 14.0249 8.79583 14.3374 8.3875 14.5124C7.97917 14.6874 7.61667 14.6166 7.3 14.2999L4 10.9999ZM7 4.84993L4.85 6.99994H2V8.99994H4.85L7 11.1499V4.84993Z" fill="white"/>
</svg>
