<svg width="16" height="19" viewBox="0 0 16 19" fill="none" xmlns="http://www.w3.org/2000/svg">
<path d="M8 19.0001C5.78333 19.0001 3.89583 18.2293 2.3375 16.6876C0.779167 15.1459 0 13.2834 0 11.1001C0 10.0001 0.208333 8.98343 0.625 8.0501C1.04167 7.11676 1.61667 6.28343 2.35 5.5501L6.95 1.0251C7.1 0.891764 7.26667 0.787598 7.45 0.712598C7.63333 0.637598 7.81667 0.600098 8 0.600098C8.18333 0.600098 8.36667 0.637598 8.55 0.712598C8.73333 0.787598 8.9 0.891764 9.05 1.0251L13.65 5.5501C14.3833 6.28343 14.9583 7.11676 15.375 8.0501C15.7917 8.98343 16 10.0001 16 11.1001C16 13.2834 15.2208 15.1459 13.6625 16.6876C12.1042 18.2293 10.2167 19.0001 8 19.0001ZM8 17.0001V2.8001L3.75 7.0001C3.16667 7.5501 2.72917 8.17093 2.4375 8.8626C2.14583 9.55426 2 10.3001 2 11.1001C2 12.7168 2.58333 14.1043 3.75 15.2626C4.91667 16.4209 6.33333 17.0001 8 17.0001Z" fill="white"/>
</svg>
