<svg width="15" height="13" viewBox="0 0 13 13" fill="none" xmlns="http://www.w3.org/2000/svg">
    <path d="M10.0455 8.125V5.6875H8.27273V4.0625H10.0455V1.625H11.2273V4.0625H13V5.6875H11.2273V8.125H10.0455ZM4.72727 6.5C4.07727 6.5 3.52083 6.18177 3.05795 5.54531C2.59508 4.90885 2.36364 4.14375 2.36364 3.25C2.36364 2.35625 2.59508 1.59115 3.05795 0.954687C3.52083 0.318229 4.07727 0 4.72727 0C5.37727 0 5.93371 0.318229 6.39659 0.954687C6.85947 1.59115 7.09091 2.35625 7.09091 3.25C7.09091 4.14375 6.85947 4.90885 6.39659 5.54531C5.93371 6.18177 5.37727 6.5 4.72727 6.5ZM0 13V10.725C0 10.2646 0.0861742 9.84141 0.258523 9.45547C0.430871 9.06953 0.659848 8.775 0.945455 8.57187C1.55606 8.15208 2.17652 7.83724 2.80682 7.62734C3.43712 7.41745 4.07727 7.3125 4.72727 7.3125C5.37727 7.3125 6.01742 7.41745 6.64773 7.62734C7.27803 7.83724 7.89848 8.15208 8.50909 8.57187C8.7947 8.775 9.02367 9.06953 9.19602 9.45547C9.36837 9.84141 9.45455 10.2646 9.45455 10.725V13H0ZM1.18182 11.375H8.27273V10.725C8.27273 10.576 8.24564 10.4406 8.19148 10.3187C8.13731 10.1969 8.06591 10.1021 7.97727 10.0344C7.44545 9.66875 6.90871 9.39453 6.36705 9.21172C5.82538 9.02891 5.27879 8.9375 4.72727 8.9375C4.17576 8.9375 3.62917 9.02891 3.0875 9.21172C2.54583 9.39453 2.00909 9.66875 1.47727 10.0344C1.38864 10.1021 1.31723 10.1969 1.26307 10.3187C1.2089 10.4406 1.18182 10.576 1.18182 10.725V11.375ZM4.72727 4.875C5.05227 4.875 5.33049 4.71589 5.56193 4.39766C5.79337 4.07943 5.90909 3.69687 5.90909 3.25C5.90909 2.80312 5.79337 2.42057 5.56193 2.10234C5.33049 1.78411 5.05227 1.625 4.72727 1.625C4.40227 1.625 4.12405 1.78411 3.89261 2.10234C3.66117 2.42057 3.54545 2.80312 3.54545 3.25C3.54545 3.69687 3.66117 4.07943 3.89261 4.39766C4.12405 4.71589 4.40227 4.875 4.72727 4.875Z" fill="#5F6368"/>
</svg>
