<svg width="13" height="13" viewBox="0 0 13 13" fill="none" xmlns="http://www.w3.org/2000/svg">
    <path d="M6.90821 5.2619C6.73027 5.2619 6.58112 5.20258 6.46075 5.08393C6.34038 4.96528 6.28019 4.81825 6.28019 4.64286C6.28019 4.46746 6.34038 4.32044 6.46075 4.20179C6.58112 4.08313 6.73027 4.02381 6.90821 4.02381C7.08615 4.02381 7.23531 4.08313 7.35568 4.20179C7.47605 4.32044 7.53623 4.46746 7.53623 4.64286C7.53623 4.81825 7.47605 4.96528 7.35568 5.08393C7.23531 5.20258 7.08615 5.2619 6.90821 5.2619ZM6.28019 3.09524V0H7.53623V3.09524H6.28019ZM3.76812 13C3.42271 13 3.12701 12.8788 2.88104 12.6363C2.63506 12.3938 2.51208 12.1024 2.51208 11.7619C2.51208 11.4214 2.63506 11.13 2.88104 10.8875C3.12701 10.645 3.42271 10.5238 3.76812 10.5238C4.11353 10.5238 4.40922 10.645 4.65519 10.8875C4.90117 11.13 5.02415 11.4214 5.02415 11.7619C5.02415 12.1024 4.90117 12.3938 4.65519 12.6363C4.40922 12.8788 4.11353 13 3.76812 13ZM10.0483 13C9.7029 13 9.40721 12.8788 9.16123 12.6363C8.91526 12.3938 8.79227 12.1024 8.79227 11.7619C8.79227 11.4214 8.91526 11.13 9.16123 10.8875C9.40721 10.645 9.7029 10.5238 10.0483 10.5238C10.3937 10.5238 10.6894 10.645 10.9354 10.8875C11.1814 11.13 11.3043 11.4214 11.3043 11.7619C11.3043 12.1024 11.1814 12.3938 10.9354 12.6363C10.6894 12.8788 10.3937 13 10.0483 13ZM0 1.85714V0.619048H2.05676L4.72585 6.19048H9.12198L11.5713 1.85714H13L10.2367 6.77857C10.1216 6.98492 9.96719 7.14484 9.77355 7.25833C9.57991 7.37183 9.36796 7.42857 9.13768 7.42857H4.45894L3.76812 8.66667H11.3043V9.90476H3.76812C3.2971 9.90476 2.93861 9.70357 2.69263 9.30119C2.44666 8.89881 2.43881 8.49127 2.66908 8.07857L3.51691 6.5619L1.25604 1.85714H0Z" fill="#5F6368"/>
</svg>
