<svg width="13" height="12" viewBox="0 0 13 12" fill="none" xmlns="http://www.w3.org/2000/svg">
<path d="M7.22222 3.125V0.625C7.22222 0.447917 7.29144 0.299479 7.42986 0.179688C7.56829 0.0598958 7.73981 0 7.94444 0H12.2778C12.4824 0 12.6539 0.0598958 12.7924 0.179688C12.9308 0.299479 13 0.447917 13 0.625V3.125C13 3.30208 12.9308 3.45052 12.7924 3.57031C12.6539 3.6901 12.4824 3.75 12.2778 3.75H7.94444C7.73981 3.75 7.56829 3.6901 7.42986 3.57031C7.29144 3.45052 7.22222 3.30208 7.22222 3.125ZM0 5.625V0.625C0 0.447917 0.069213 0.299479 0.207639 0.179688C0.346065 0.0598958 0.517593 0 0.722222 0H5.05556C5.26019 0 5.43171 0.0598958 5.57014 0.179688C5.70856 0.299479 5.77778 0.447917 5.77778 0.625V5.625C5.77778 5.80208 5.70856 5.95052 5.57014 6.07031C5.43171 6.1901 5.26019 6.25 5.05556 6.25H0.722222C0.517593 6.25 0.346065 6.1901 0.207639 6.07031C0.069213 5.95052 0 5.80208 0 5.625ZM7.22222 10.625V5.625C7.22222 5.44792 7.29144 5.29948 7.42986 5.17969C7.56829 5.0599 7.73981 5 7.94444 5H12.2778C12.4824 5 12.6539 5.0599 12.7924 5.17969C12.9308 5.29948 13 5.44792 13 5.625V10.625C13 10.8021 12.9308 10.9505 12.7924 11.0703C12.6539 11.1901 12.4824 11.25 12.2778 11.25H7.94444C7.73981 11.25 7.56829 11.1901 7.42986 11.0703C7.29144 10.9505 7.22222 10.8021 7.22222 10.625ZM0 10.625V8.125C0 7.94792 0.069213 7.79948 0.207639 7.67969C0.346065 7.5599 0.517593 7.5 0.722222 7.5H5.05556C5.26019 7.5 5.43171 7.5599 5.57014 7.67969C5.70856 7.79948 5.77778 7.94792 5.77778 8.125V10.625C5.77778 10.8021 5.70856 10.9505 5.57014 11.0703C5.43171 11.1901 5.26019 11.25 5.05556 11.25H0.722222C0.517593 11.25 0.346065 11.1901 0.207639 11.0703C0.069213 10.9505 0 10.8021 0 10.625ZM1.44444 5H4.33333V1.25H1.44444V5ZM8.66667 10H11.5556V6.25H8.66667V10ZM8.66667 2.5H11.5556V1.25H8.66667V2.5ZM1.44444 10H4.33333V8.75H1.44444V10Z" fill="white"/>
</svg>
