<svg width="15" height="13" viewBox="0 0 15 13" fill="none" xmlns="http://www.w3.org/2000/svg">
<path d="M5.05556 12.1875C4.85093 12.1875 4.6794 12.1096 4.54097 11.9539C4.40255 11.7982 4.33333 11.6052 4.33333 11.375C4.33333 11.1448 4.40255 10.9518 4.54097 10.7961C4.6794 10.6404 4.85093 10.5625 5.05556 10.5625H12.2778C12.4824 10.5625 12.6539 10.6404 12.7924 10.7961C12.9308 10.9518 13 11.1448 13 11.375C13 11.6052 12.9308 11.7982 12.7924 11.9539C12.6539 12.1096 12.4824 12.1875 12.2778 12.1875H5.05556ZM5.05556 7.3125C4.85093 7.3125 4.6794 7.23464 4.54097 7.07891C4.40255 6.92318 4.33333 6.73021 4.33333 6.5C4.33333 6.26979 4.40255 6.07682 4.54097 5.92109C4.6794 5.76536 4.85093 5.6875 5.05556 5.6875H12.2778C12.4824 5.6875 12.6539 5.76536 12.7924 5.92109C12.9308 6.07682 13 6.26979 13 6.5C13 6.73021 12.9308 6.92318 12.7924 7.07891C12.6539 7.23464 12.4824 7.3125 12.2778 7.3125H5.05556ZM5.05556 2.4375C4.85093 2.4375 4.6794 2.35964 4.54097 2.20391C4.40255 2.04818 4.33333 1.85521 4.33333 1.625C4.33333 1.39479 4.40255 1.20182 4.54097 1.04609C4.6794 0.890365 4.85093 0.8125 5.05556 0.8125H12.2778C12.4824 0.8125 12.6539 0.890365 12.7924 1.04609C12.9308 1.20182 13 1.39479 13 1.625C13 1.85521 12.9308 2.04818 12.7924 2.20391C12.6539 2.35964 12.4824 2.4375 12.2778 2.4375H5.05556ZM1.44444 13C1.04722 13 0.707176 12.8409 0.424306 12.5227C0.141435 12.2044 0 11.8219 0 11.375C0 10.9281 0.141435 10.5456 0.424306 10.2273C0.707176 9.90911 1.04722 9.75 1.44444 9.75C1.84167 9.75 2.18171 9.90911 2.46458 10.2273C2.74745 10.5456 2.88889 10.9281 2.88889 11.375C2.88889 11.8219 2.74745 12.2044 2.46458 12.5227C2.18171 12.8409 1.84167 13 1.44444 13ZM1.44444 8.125C1.04722 8.125 0.707176 7.96589 0.424306 7.64766C0.141435 7.32943 0 6.94687 0 6.5C0 6.05312 0.141435 5.67057 0.424306 5.35234C0.707176 5.03411 1.04722 4.875 1.44444 4.875C1.84167 4.875 2.18171 5.03411 2.46458 5.35234C2.74745 5.67057 2.88889 6.05312 2.88889 6.5C2.88889 6.94687 2.74745 7.32943 2.46458 7.64766C2.18171 7.96589 1.84167 8.125 1.44444 8.125ZM1.44444 3.25C1.04722 3.25 0.707176 3.09089 0.424306 2.77266C0.141435 2.45443 0 2.07187 0 1.625C0 1.17812 0.141435 0.795573 0.424306 0.477344C0.707176 0.159115 1.04722 0 1.44444 0C1.84167 0 2.18171 0.159115 2.46458 0.477344C2.74745 0.795573 2.88889 1.17812 2.88889 1.625C2.88889 2.07187 2.74745 2.45443 2.46458 2.77266C2.18171 3.09089 1.84167 3.25 1.44444 3.25Z" fill="white"/>
</svg>
