<svg width="13" height="13" viewBox="0 0 13 13" fill="none" xmlns="http://www.w3.org/2000/svg">
<path d="M1.36842 13C0.992105 13 0.669956 12.8586 0.401974 12.5757C0.133991 12.2928 0 11.9528 0 11.5556V1.44444C0 1.04722 0.133991 0.707176 0.401974 0.424306C0.669956 0.141435 0.992105 0 1.36842 0H10.9474C11.3237 0 11.6458 0.141435 11.9138 0.424306C12.1818 0.707176 12.3158 1.04722 12.3158 1.44444V3.25H10.9474V1.44444H1.36842V11.5556H10.9474V9.75H12.3158V11.5556C12.3158 11.9528 12.1818 12.2928 11.9138 12.5757C11.6458 12.8586 11.3237 13 10.9474 13H1.36842ZM6.8421 10.1111C6.46579 10.1111 6.14364 9.96968 5.87566 9.68681C5.60768 9.40394 5.47368 9.06389 5.47368 8.66667V4.33333C5.47368 3.93611 5.60768 3.59607 5.87566 3.31319C6.14364 3.03032 6.46579 2.88889 6.8421 2.88889H11.6316C12.0079 2.88889 12.33 3.03032 12.598 3.31319C12.866 3.59607 13 3.93611 13 4.33333V8.66667C13 9.06389 12.866 9.40394 12.598 9.68681C12.33 9.96968 12.0079 10.1111 11.6316 10.1111H6.8421ZM11.6316 8.66667V4.33333H6.8421V8.66667H11.6316ZM8.89474 7.58333C9.17982 7.58333 9.42215 7.47801 9.62171 7.26736C9.82127 7.05671 9.92105 6.80093 9.92105 6.5C9.92105 6.19907 9.82127 5.94329 9.62171 5.73264C9.42215 5.52199 9.17982 5.41667 8.89474 5.41667C8.60965 5.41667 8.36732 5.52199 8.16776 5.73264C7.9682 5.94329 7.86842 6.19907 7.86842 6.5C7.86842 6.80093 7.9682 7.05671 8.16776 7.26736C8.36732 7.47801 8.60965 7.58333 8.89474 7.58333Z" fill="white"/>
</svg>
