<svg width="14" height="16" viewBox="0 0 30 25" fill="none" xmlns="http://www.w3.org/2000/svg">
    <path d="M3 19.7368V22.3684H27V19.7368H3ZM3 5.26316H6.3C6.175 5.06579 6.09375 4.85746 6.05625 4.63816C6.01875 4.41886 6 4.1886 6 3.94737C6 2.85088 6.4375 1.91886 7.3125 1.15132C8.1875 0.383772 9.25 0 10.5 0C11.25 0 11.9438 0.169956 12.5813 0.509868C13.2188 0.849781 13.775 1.27193 14.25 1.77632L15 2.63158L15.75 1.77632C16.2 1.25 16.75 0.822368 17.4 0.493421C18.05 0.164474 18.75 0 19.5 0C20.75 0 21.8125 0.383772 22.6875 1.15132C23.5625 1.91886 24 2.85088 24 3.94737C24 4.1886 23.9813 4.41886 23.9438 4.63816C23.9063 4.85746 23.825 5.06579 23.7 5.26316H27C27.825 5.26316 28.5313 5.52083 29.1188 6.03618C29.7063 6.55154 30 7.17105 30 7.89474V22.3684C30 23.0921 29.7063 23.7116 29.1188 24.227C28.5313 24.7423 27.825 25 27 25H3C2.175 25 1.46875 24.7423 0.88125 24.227C0.29375 23.7116 0 23.0921 0 22.3684V7.89474C0 7.17105 0.29375 6.55154 0.88125 6.03618C1.46875 5.52083 2.175 5.26316 3 5.26316ZM3 15.7895H27V7.89474H19.35L22.5 11.6447L20.1 13.1579L15 7.10526L9.9 13.1579L7.5 11.6447L10.575 7.89474H3V15.7895ZM10.5 5.26316C10.925 5.26316 11.2813 5.13706 11.5688 4.88487C11.8563 4.63268 12 4.32018 12 3.94737C12 3.57456 11.8563 3.26206 11.5688 3.00987C11.2813 2.75768 10.925 2.63158 10.5 2.63158C10.075 2.63158 9.71875 2.75768 9.43125 3.00987C9.14375 3.26206 9 3.57456 9 3.94737C9 4.32018 9.14375 4.63268 9.43125 4.88487C9.71875 5.13706 10.075 5.26316 10.5 5.26316ZM19.5 5.26316C19.925 5.26316 20.2813 5.13706 20.5688 4.88487C20.8563 4.63268 21 4.32018 21 3.94737C21 3.57456 20.8563 3.26206 20.5688 3.00987C20.2813 2.75768 19.925 2.63158 19.5 2.63158C19.075 2.63158 18.7188 2.75768 18.4313 3.00987C18.1438 3.26206 18 3.57456 18 3.94737C18 4.32018 18.1438 4.63268 18.4313 4.88487C18.7188 5.13706 19.075 5.26316 19.5 5.26316Z" fill="white"/>
</svg>
