<svg width="18" height="19" viewBox="0 0 18 19" fill="none" xmlns="http://www.w3.org/2000/svg">
<path d="M1.8 17.1905V9.04762C1.305 9.04762 0.88125 8.87044 0.52875 8.51607C0.17625 8.16171 0 7.73571 0 7.2381V5.42857C0 4.93095 0.17625 4.50496 0.52875 4.1506C0.88125 3.79623 1.305 3.61905 1.8 3.61905H4.68C4.605 3.48333 4.55625 3.34008 4.53375 3.18929C4.51125 3.03849 4.5 2.88016 4.5 2.71429C4.5 1.96032 4.7625 1.31944 5.2875 0.791667C5.8125 0.263889 6.45 0 7.2 0C7.545 0 7.8675 0.0640873 8.1675 0.192262C8.4675 0.320437 8.745 0.497619 9 0.72381C9.255 0.48254 9.5325 0.301587 9.8325 0.180952C10.1325 0.0603175 10.455 0 10.8 0C11.55 0 12.1875 0.263889 12.7125 0.791667C13.2375 1.31944 13.5 1.96032 13.5 2.71429C13.5 2.88016 13.485 3.03472 13.455 3.17798C13.425 3.32123 13.38 3.46825 13.32 3.61905H16.2C16.695 3.61905 17.1188 3.79623 17.4713 4.1506C17.8238 4.50496 18 4.93095 18 5.42857V7.2381C18 7.73571 17.8238 8.16171 17.4713 8.51607C17.1188 8.87044 16.695 9.04762 16.2 9.04762V17.1905C16.2 17.6881 16.0238 18.1141 15.6713 18.4685C15.3188 18.8228 14.895 19 14.4 19H3.6C3.105 19 2.68125 18.8228 2.32875 18.4685C1.97625 18.1141 1.8 17.6881 1.8 17.1905ZM10.8 1.80952C10.545 1.80952 10.3313 1.89623 10.1588 2.06964C9.98625 2.24306 9.9 2.45794 9.9 2.71429C9.9 2.97063 9.98625 3.18552 10.1588 3.35893C10.3313 3.53234 10.545 3.61905 10.8 3.61905C11.055 3.61905 11.2688 3.53234 11.4413 3.35893C11.6138 3.18552 11.7 2.97063 11.7 2.71429C11.7 2.45794 11.6138 2.24306 11.4413 2.06964C11.2688 1.89623 11.055 1.80952 10.8 1.80952ZM6.3 2.71429C6.3 2.97063 6.38625 3.18552 6.55875 3.35893C6.73125 3.53234 6.945 3.61905 7.2 3.61905C7.455 3.61905 7.66875 3.53234 7.84125 3.35893C8.01375 3.18552 8.1 2.97063 8.1 2.71429C8.1 2.45794 8.01375 2.24306 7.84125 2.06964C7.66875 1.89623 7.455 1.80952 7.2 1.80952C6.945 1.80952 6.73125 1.89623 6.55875 2.06964C6.38625 2.24306 6.3 2.45794 6.3 2.71429ZM1.8 5.42857V7.2381H8.1V5.42857H1.8ZM8.1 17.1905V9.04762H3.6V17.1905H8.1ZM9.9 17.1905H14.4V9.04762H9.9V17.1905ZM16.2 7.2381V5.42857H9.9V7.2381H16.2Z" fill="white"/>
</svg>
