<svg width="13" height="13" viewBox="0 0 13 13" fill="none" xmlns="http://www.w3.org/2000/svg">
    <path d="M9.1 3.61111V1.44444H3.9V3.61111H2.6V0H10.4V3.61111H9.1ZM10.4 6.86111C10.5842 6.86111 10.7385 6.7919 10.8631 6.65347C10.9877 6.51505 11.05 6.34352 11.05 6.13889C11.05 5.93426 10.9877 5.76273 10.8631 5.62431C10.7385 5.48588 10.5842 5.41667 10.4 5.41667C10.2158 5.41667 10.0615 5.48588 9.93687 5.62431C9.81229 5.76273 9.75 5.93426 9.75 6.13889C9.75 6.34352 9.81229 6.51505 9.93687 6.65347C10.0615 6.7919 10.2158 6.86111 10.4 6.86111ZM9.1 11.5556V8.66667H3.9V11.5556H9.1ZM10.4 13H2.6V10.1111H0V5.77778C0 5.16389 0.189583 4.64931 0.56875 4.23403C0.947917 3.81875 1.40833 3.61111 1.95 3.61111H11.05C11.6025 3.61111 12.0656 3.81875 12.4394 4.23403C12.8131 4.64931 13 5.16389 13 5.77778V10.1111H10.4V13ZM11.7 8.66667V5.77778C11.7 5.57315 11.6377 5.40162 11.5131 5.26319C11.3885 5.12477 11.2342 5.05556 11.05 5.05556H1.95C1.76583 5.05556 1.61146 5.12477 1.48687 5.26319C1.36229 5.40162 1.3 5.57315 1.3 5.77778V8.66667H2.6V7.22222H10.4V8.66667H11.7Z" fill="white"/>
</svg>
