<svg width="18" height="18" viewBox="0 0 18 18" fill="none" xmlns="http://www.w3.org/2000/svg">
<path d="M7.45 9.975L8.75 11.275C8.93333 11.4583 9.16667 11.55 9.45 11.55C9.73333 11.55 9.96667 11.4583 10.15 11.275L13 8.425V9.025C13 9.30833 13.0958 9.54167 13.2875 9.725C13.4792 9.90833 13.7167 10 14 10C14.2833 10 14.5208 9.90417 14.7125 9.7125C14.9042 9.52083 15 9.28333 15 9V6C15 5.71667 14.9042 5.47917 14.7125 5.2875C14.5208 5.09583 14.2833 5 14 5H10.975C10.6917 5 10.4583 5.09583 10.275 5.2875C10.0917 5.47917 10 5.71667 10 6C10 6.28333 10.0958 6.52083 10.2875 6.7125C10.4792 6.90417 10.7167 7 11 7H11.575L9.45 9.15L8.15 7.85C7.96667 7.65 7.73333 7.55 7.45 7.55C7.16667 7.55 6.93333 7.65 6.75 7.85L3.7 10.9C3.5 11.0833 3.4 11.3167 3.4 11.6C3.4 11.8833 3.5 12.1167 3.7 12.3C3.88333 12.5 4.11667 12.6 4.4 12.6C4.68333 12.6 4.91667 12.5 5.1 12.3L7.45 9.975ZM2 18C1.45 18 0.979167 17.8042 0.5875 17.4125C0.195833 17.0208 0 16.55 0 16V2C0 1.45 0.195833 0.979167 0.5875 0.5875C0.979167 0.195833 1.45 0 2 0H16C16.55 0 17.0208 0.195833 17.4125 0.5875C17.8042 0.979167 18 1.45 18 2V16C18 16.55 17.8042 17.0208 17.4125 17.4125C17.0208 17.8042 16.55 18 16 18H2ZM2 16H16V2H2V16Z" fill="white"/>
</svg>
