<svg width="13" height="13" viewBox="0 0 13 13" fill="none" xmlns="http://www.w3.org/2000/svg">
<path d="M1.47727 13C1.07102 13 0.723248 12.8586 0.433949 12.5757C0.14465 12.2928 0 11.9528 0 11.5556V1.44444C0 1.04722 0.14465 0.707176 0.433949 0.424306C0.723248 0.141435 1.07102 0 1.47727 0H5.90909C6.11837 0 6.2938 0.069213 6.43537 0.207639C6.57694 0.346065 6.64773 0.517593 6.64773 0.722222C6.64773 0.926852 6.57694 1.09838 6.43537 1.23681C6.2938 1.37523 6.11837 1.44444 5.90909 1.44444H1.47727V11.5556H5.90909C6.11837 11.5556 6.2938 11.6248 6.43537 11.7632C6.57694 11.9016 6.64773 12.0731 6.64773 12.2778C6.64773 12.4824 6.57694 12.6539 6.43537 12.7924C6.2938 12.9308 6.11837 13 5.90909 13H1.47727ZM10.4702 7.22222H5.17045C4.96117 7.22222 4.78575 7.15301 4.64418 7.01458C4.5026 6.87616 4.43182 6.70463 4.43182 6.5C4.43182 6.29537 4.5026 6.12384 4.64418 5.98542C4.78575 5.84699 4.96117 5.77778 5.17045 5.77778H10.4702L9.08523 4.42361C8.94981 4.2912 8.8821 4.1287 8.8821 3.93611C8.8821 3.74352 8.94981 3.575 9.08523 3.43056C9.22064 3.28611 9.39299 3.21088 9.60227 3.20486C9.81155 3.19884 9.99006 3.26806 10.1378 3.4125L12.7784 5.99444C12.9261 6.13889 13 6.30741 13 6.5C13 6.69259 12.9261 6.86111 12.7784 7.00556L10.1378 9.5875C9.99006 9.73195 9.81463 9.80116 9.61151 9.79514C9.40838 9.78912 9.23295 9.71389 9.08523 9.56944C8.94981 9.425 8.88518 9.25347 8.89133 9.05486C8.89749 8.85625 8.96828 8.69074 9.10369 8.55833L10.4702 7.22222Z" fill="white"/>
</svg>
