<svg width="13" height="13" viewBox="0 0 13 13" fill="none" xmlns="http://www.w3.org/2000/svg">
<path d="M0 12.7347V0.265306C0 0.187925 0.0361111 0.135417 0.108333 0.107781C0.180556 0.0801446 0.246759 0.0939626 0.306944 0.149235L0.830556 0.630102C0.902778 0.696429 0.987037 0.729592 1.08333 0.729592C1.17963 0.729592 1.26389 0.696429 1.33611 0.630102L1.91389 0.0994898C1.98611 0.0331633 2.07037 0 2.16667 0C2.26296 0 2.34722 0.0331633 2.41944 0.0994898L2.99722 0.630102C3.06944 0.696429 3.1537 0.729592 3.25 0.729592C3.3463 0.729592 3.43056 0.696429 3.50278 0.630102L4.08056 0.0994898C4.15278 0.0331633 4.23704 0 4.33333 0C4.42963 0 4.51389 0.0331633 4.58611 0.0994898L5.16389 0.630102C5.23611 0.696429 5.32037 0.729592 5.41667 0.729592C5.51296 0.729592 5.59722 0.696429 5.66944 0.630102L6.24722 0.0994898C6.31944 0.0331633 6.4037 0 6.5 0C6.5963 0 6.68056 0.0331633 6.75278 0.0994898L7.33056 0.630102C7.40278 0.696429 7.48704 0.729592 7.58333 0.729592C7.67963 0.729592 7.76389 0.696429 7.83611 0.630102L8.41389 0.0994898C8.48611 0.0331633 8.57037 0 8.66667 0C8.76296 0 8.84722 0.0331633 8.91945 0.0994898L9.49722 0.630102C9.56944 0.696429 9.6537 0.729592 9.75 0.729592C9.8463 0.729592 9.93056 0.696429 10.0028 0.630102L10.5806 0.0994898C10.6528 0.0331633 10.737 0 10.8333 0C10.9296 0 11.0139 0.0331633 11.0861 0.0994898L11.6639 0.630102C11.7361 0.696429 11.8204 0.729592 11.9167 0.729592C12.013 0.729592 12.0972 0.696429 12.1694 0.630102L12.6931 0.149235C12.7532 0.0939626 12.8194 0.0801446 12.8917 0.107781C12.9639 0.135417 13 0.187925 13 0.265306V12.7347C13 12.8121 12.9639 12.8646 12.8917 12.8922C12.8194 12.9199 12.7532 12.906 12.6931 12.8508L12.1694 12.3699C12.0972 12.3036 12.013 12.2704 11.9167 12.2704C11.8204 12.2704 11.7361 12.3036 11.6639 12.3699L11.0861 12.9005C11.0139 12.9668 10.9296 13 10.8333 13C10.737 13 10.6528 12.9668 10.5806 12.9005L10.0028 12.3699C9.93056 12.3036 9.8463 12.2704 9.75 12.2704C9.6537 12.2704 9.56944 12.3036 9.49722 12.3699L8.91945 12.9005C8.84722 12.9668 8.76296 13 8.66667 13C8.57037 13 8.48611 12.9668 8.41389 12.9005L7.83611 12.3699C7.76389 12.3036 7.67963 12.2704 7.58333 12.2704C7.48704 12.2704 7.40278 12.3036 7.33056 12.3699L6.75278 12.9005C6.68056 12.9668 6.5963 13 6.5 13C6.4037 13 6.31944 12.9668 6.24722 12.9005L5.66944 12.3699C5.59722 12.3036 5.51296 12.2704 5.41667 12.2704C5.32037 12.2704 5.23611 12.3036 5.16389 12.3699L4.58611 12.9005C4.51389 12.9668 4.42963 13 4.33333 13C4.23704 13 4.15278 12.9668 4.08056 12.9005L3.50278 12.3699C3.43056 12.3036 3.3463 12.2704 3.25 12.2704C3.1537 12.2704 3.06944 12.3036 2.99722 12.3699L2.41944 12.9005C2.34722 12.9668 2.26296 13 2.16667 13C2.07037 13 1.98611 12.9668 1.91389 12.9005L1.33611 12.3699C1.26389 12.3036 1.17963 12.2704 1.08333 12.2704C0.987037 12.2704 0.902778 12.3036 0.830556 12.3699L0.306944 12.8508C0.246759 12.906 0.180556 12.9199 0.108333 12.8922C0.0361111 12.8646 0 12.8121 0 12.7347ZM2.88889 9.81633H10.1111C10.3157 9.81633 10.4873 9.75276 10.6257 9.62564C10.7641 9.49851 10.8333 9.34099 10.8333 9.15306C10.8333 8.96514 10.7641 8.80761 10.6257 8.68048C10.4873 8.55336 10.3157 8.4898 10.1111 8.4898H2.88889C2.68426 8.4898 2.51273 8.55336 2.37431 8.68048C2.23588 8.80761 2.16667 8.96514 2.16667 9.15306C2.16667 9.34099 2.23588 9.49851 2.37431 9.62564C2.51273 9.75276 2.68426 9.81633 2.88889 9.81633ZM2.88889 7.16327H10.1111C10.3157 7.16327 10.4873 7.0997 10.6257 6.97258C10.7641 6.84545 10.8333 6.68792 10.8333 6.5C10.8333 6.31207 10.7641 6.15455 10.6257 6.02742C10.4873 5.9003 10.3157 5.83673 10.1111 5.83673H2.88889C2.68426 5.83673 2.51273 5.9003 2.37431 6.02742C2.23588 6.15455 2.16667 6.31207 2.16667 6.5C2.16667 6.68792 2.23588 6.84545 2.37431 6.97258C2.51273 7.0997 2.68426 7.16327 2.88889 7.16327ZM2.88889 4.5102H10.1111C10.3157 4.5102 10.4873 4.44664 10.6257 4.31952C10.7641 4.19239 10.8333 4.03486 10.8333 3.84694C10.8333 3.65901 10.7641 3.50149 10.6257 3.37436C10.4873 3.24724 10.3157 3.18367 10.1111 3.18367H2.88889C2.68426 3.18367 2.51273 3.24724 2.37431 3.37436C2.23588 3.50149 2.16667 3.65901 2.16667 3.84694C2.16667 4.03486 2.23588 4.19239 2.37431 4.31952C2.51273 4.44664 2.68426 4.5102 2.88889 4.5102ZM1.44444 11.2092H11.5556V1.79082H1.44444V11.2092Z" fill="white"/>
</svg>
