<svg width="16" height="18" viewBox="0 0 16 18" fill="none" xmlns="http://www.w3.org/2000/svg">
<path d="M2.66667 18C1.92593 18 1.2963 17.7375 0.777778 17.2125C0.259259 16.6875 0 16.05 0 15.3V14.4C0 13.905 0.174074 13.4813 0.522222 13.1288C0.87037 12.7763 1.28889 12.6 1.77778 12.6H2.66667V1.8C2.66667 1.305 2.84074 0.88125 3.18889 0.52875C3.53704 0.17625 3.95556 0 4.44444 0H14.2222C14.7111 0 15.1296 0.17625 15.4778 0.52875C15.8259 0.88125 16 1.305 16 1.8V15.3C16 16.05 15.7407 16.6875 15.2222 17.2125C14.7037 17.7375 14.0741 18 13.3333 18H2.66667ZM13.3333 16.2C13.5852 16.2 13.7963 16.1138 13.9667 15.9413C14.137 15.7688 14.2222 15.555 14.2222 15.3V1.8H4.44444V12.6H10.6667C11.1556 12.6 11.5741 12.7763 11.9222 13.1288C12.2704 13.4813 12.4444 13.905 12.4444 14.4V15.3C12.4444 15.555 12.5296 15.7688 12.7 15.9413C12.8704 16.1138 13.0815 16.2 13.3333 16.2ZM6.22222 6.3C5.97037 6.3 5.75926 6.21375 5.58889 6.04125C5.41852 5.86875 5.33333 5.655 5.33333 5.4C5.33333 5.145 5.41852 4.93125 5.58889 4.75875C5.75926 4.58625 5.97037 4.5 6.22222 4.5H12.4444C12.6963 4.5 12.9074 4.58625 13.0778 4.75875C13.2481 4.93125 13.3333 5.145 13.3333 5.4C13.3333 5.655 13.2481 5.86875 13.0778 6.04125C12.9074 6.21375 12.6963 6.3 12.4444 6.3H6.22222ZM6.22222 9C5.97037 9 5.75926 8.91375 5.58889 8.74125C5.41852 8.56875 5.33333 8.355 5.33333 8.1C5.33333 7.845 5.41852 7.63125 5.58889 7.45875C5.75926 7.28625 5.97037 7.2 6.22222 7.2H12.4444C12.6963 7.2 12.9074 7.28625 13.0778 7.45875C13.2481 7.63125 13.3333 7.845 13.3333 8.1C13.3333 8.355 13.2481 8.56875 13.0778 8.74125C12.9074 8.91375 12.6963 9 12.4444 9H6.22222ZM2.66667 16.2H10.6667V14.4H1.77778V15.3C1.77778 15.555 1.86296 15.7688 2.03333 15.9413C2.2037 16.1138 2.41481 16.2 2.66667 16.2ZM2.66667 16.2H1.77778H10.6667H2.66667Z" fill="white"/>
</svg>

