<svg width="10" height="13" viewBox="0 0 10 13" fill="none" xmlns="http://www.w3.org/2000/svg">
    <path d="M3.125 6.5C2.94792 6.5 2.79948 6.43771 2.67969 6.31312C2.5599 6.18854 2.5 6.03417 2.5 5.85C2.5 5.66583 2.5599 5.51146 2.67969 5.38687C2.79948 5.26229 2.94792 5.2 3.125 5.2H6.875C7.05208 5.2 7.20052 5.26229 7.32031 5.38687C7.4401 5.51146 7.5 5.66583 7.5 5.85C7.5 6.03417 7.4401 6.18854 7.32031 6.31312C7.20052 6.43771 7.05208 6.5 6.875 6.5H3.125ZM3.125 3.9C2.94792 3.9 2.79948 3.83771 2.67969 3.71312C2.5599 3.58854 2.5 3.43417 2.5 3.25C2.5 3.06583 2.5599 2.91146 2.67969 2.78687C2.79948 2.66229 2.94792 2.6 3.125 2.6H6.875C7.05208 2.6 7.20052 2.66229 7.32031 2.78687C7.4401 2.91146 7.5 3.06583 7.5 3.25C7.5 3.43417 7.4401 3.58854 7.32031 3.71312C7.20052 3.83771 7.05208 3.9 6.875 3.9H3.125ZM1.25 7.8H5.9375C6.23958 7.8 6.52083 7.86771 6.78125 8.00312C7.04167 8.13854 7.26042 8.33083 7.4375 8.58L8.75 10.3675V1.3H1.25V7.8ZM1.25 11.7H8.15625L6.45312 9.37625C6.39062 9.28958 6.3151 9.22187 6.22656 9.17312C6.13802 9.12437 6.04167 9.1 5.9375 9.1H1.25V11.7ZM8.75 13H1.25C0.90625 13 0.611979 12.8727 0.367188 12.6181C0.122396 12.3635 0 12.0575 0 11.7V1.3C0 0.9425 0.122396 0.636458 0.367188 0.381875C0.611979 0.127292 0.90625 0 1.25 0H8.75C9.09375 0 9.38802 0.127292 9.63281 0.381875C9.8776 0.636458 10 0.9425 10 1.3V11.7C10 12.0575 9.8776 12.3635 9.63281 12.6181C9.38802 12.8727 9.09375 13 8.75 13Z" fill="white"/>
</svg>
