<svg width="13" height="13" viewBox="0 0 13 13" fill="none" xmlns="http://www.w3.org/2000/svg">
<path d="M8.01667 11.7143L11.7 10.5397C11.6484 10.4444 11.5736 10.3624 11.4756 10.2937C11.3776 10.2249 11.2667 10.1905 11.1429 10.1905H8.01667C7.73809 10.1905 7.51627 10.1799 7.35119 10.1587C7.18611 10.1376 7.01587 10.0952 6.84048 10.0317L5.95833 9.73016C5.79325 9.67725 5.6746 9.57143 5.60238 9.4127C5.53016 9.25397 5.51984 9.08995 5.57143 8.92063C5.62302 8.75132 5.72361 8.62698 5.87321 8.54762C6.02282 8.46825 6.18016 8.45503 6.34524 8.50794L6.99524 8.73016C7.17064 8.78307 7.36925 8.8254 7.59107 8.85714C7.8129 8.88889 8.11468 8.91005 8.49643 8.92063H8.66667C8.66667 8.80423 8.63313 8.69312 8.56607 8.5873C8.49901 8.48148 8.41905 8.4127 8.32619 8.38095L4.70476 7.01587H3.71429V10.5079L8.01667 11.7143ZM7.69167 12.9524L3.71429 11.8095C3.63175 12.0847 3.46925 12.3069 3.22679 12.4762C2.98433 12.6455 2.73413 12.7302 2.47619 12.7302H1.2381C0.897619 12.7302 0.606151 12.6058 0.36369 12.3571C0.12123 12.1085 0 11.8095 0 11.4603V7.01587C0 6.66667 0.12123 6.36772 0.36369 6.11905C0.606151 5.87037 0.897619 5.74603 1.2381 5.74603H4.70476C4.77698 5.74603 4.84921 5.75397 4.92143 5.76984C4.99365 5.78571 5.06071 5.80423 5.12262 5.8254L8.75952 7.20635C9.1 7.33333 9.37599 7.55556 9.5875 7.87302C9.79901 8.19048 9.90476 8.53968 9.90476 8.92063H11.1429C11.6587 8.92063 12.0972 9.09524 12.4583 9.44444C12.8194 9.79365 13 10.254 13 10.8254C13 11.0582 12.9407 11.2407 12.822 11.373C12.7034 11.5053 12.5202 11.6138 12.2726 11.6984L8.40357 12.9365C8.29008 12.9788 8.17143 13 8.04762 13C7.92381 13 7.80516 12.9841 7.69167 12.9524ZM1.2381 11.4603H2.47619V7.01587H1.2381V11.4603ZM8.04762 0C8.17143 0 8.29266 0.0185185 8.41131 0.0555556C8.52996 0.0925926 8.64603 0.153439 8.75952 0.238095L11.8548 2.50794C12.0198 2.62434 12.1488 2.77249 12.2417 2.95238C12.3345 3.13228 12.381 3.32804 12.381 3.53968V7.01587C12.381 7.19577 12.3216 7.34656 12.203 7.46825C12.0843 7.58995 11.9373 7.65079 11.7619 7.65079C11.5865 7.65079 11.4395 7.58995 11.3208 7.46825C11.2022 7.34656 11.1429 7.19577 11.1429 7.01587V3.52381L8.04762 1.30159L4.95238 3.52381V3.84127C4.95238 4.02116 4.89306 4.17196 4.7744 4.29365C4.65575 4.41534 4.50873 4.47619 4.33333 4.47619C4.15794 4.47619 4.01091 4.41534 3.89226 4.29365C3.77361 4.17196 3.71429 4.02116 3.71429 3.84127V3.53968C3.71429 3.32804 3.76071 3.13228 3.85357 2.95238C3.94643 2.77249 4.0754 2.62434 4.24048 2.50794L7.33571 0.238095C7.44921 0.153439 7.56528 0.0925926 7.68393 0.0555556C7.80258 0.0185185 7.92381 0 8.04762 0ZM7.42857 3.84127C7.51111 3.84127 7.58333 3.80952 7.64524 3.74603C7.70714 3.68254 7.73809 3.60847 7.73809 3.52381C7.73809 3.43915 7.70714 3.36508 7.64524 3.30159C7.58333 3.2381 7.51111 3.20635 7.42857 3.20635C7.34603 3.20635 7.27381 3.2381 7.21191 3.30159C7.15 3.36508 7.11905 3.43915 7.11905 3.52381C7.11905 3.60847 7.15 3.68254 7.21191 3.74603C7.27381 3.80952 7.34603 3.84127 7.42857 3.84127ZM8.66667 3.84127C8.74921 3.84127 8.82143 3.80952 8.88333 3.74603C8.94524 3.68254 8.97619 3.60847 8.97619 3.52381C8.97619 3.43915 8.94524 3.36508 8.88333 3.30159C8.82143 3.2381 8.74921 3.20635 8.66667 3.20635C8.58413 3.20635 8.5119 3.2381 8.45 3.30159C8.38809 3.36508 8.35714 3.43915 8.35714 3.52381C8.35714 3.60847 8.38809 3.68254 8.45 3.74603C8.5119 3.80952 8.58413 3.84127 8.66667 3.84127ZM7.42857 5.11111C7.51111 5.11111 7.58333 5.07937 7.64524 5.01587C7.70714 4.95238 7.73809 4.87831 7.73809 4.79365C7.73809 4.70899 7.70714 4.63492 7.64524 4.57143C7.58333 4.50794 7.51111 4.47619 7.42857 4.47619C7.34603 4.47619 7.27381 4.50794 7.21191 4.57143C7.15 4.63492 7.11905 4.70899 7.11905 4.79365C7.11905 4.87831 7.15 4.95238 7.21191 5.01587C7.27381 5.07937 7.34603 5.11111 7.42857 5.11111ZM8.66667 5.11111C8.74921 5.11111 8.82143 5.07937 8.88333 5.01587C8.94524 4.95238 8.97619 4.87831 8.97619 4.79365C8.97619 4.70899 8.94524 4.63492 8.88333 4.57143C8.82143 4.50794 8.74921 4.47619 8.66667 4.47619C8.58413 4.47619 8.5119 4.50794 8.45 4.57143C8.38809 4.63492 8.35714 4.70899 8.35714 4.79365C8.35714 4.87831 8.38809 4.95238 8.45 5.01587C8.5119 5.07937 8.58413 5.11111 8.66667 5.11111Z" fill="white"/>
</svg>
