<svg width="10" height="18" viewBox="0 0 10 18" fill="none" xmlns="http://www.w3.org/2000/svg">
<path d="M5.02473 18C4.74139 18 4.50389 17.9042 4.31223 17.7125C4.12056 17.5208 4.02473 17.2833 4.02473 17V15.85C3.27473 15.6833 2.61639 15.3917 2.04973 14.975C1.48306 14.5583 1.02473 13.975 0.674725 13.225C0.558058 12.9917 0.553892 12.7458 0.662225 12.4875C0.770558 12.2292 0.966392 12.0417 1.24973 11.925C1.48306 11.825 1.72473 11.8292 1.97473 11.9375C2.22473 12.0458 2.41639 12.225 2.54973 12.475C2.83306 12.975 3.19139 13.3542 3.62473 13.6125C4.05806 13.8708 4.59139 14 5.22473 14C5.90806 14 6.48723 13.8458 6.96223 13.5375C7.43723 13.2292 7.67473 12.75 7.67473 12.1C7.67473 11.5167 7.49139 11.0542 7.12473 10.7125C6.75806 10.3708 5.90806 9.98333 4.57473 9.55C3.14139 9.1 2.15806 8.5625 1.62473 7.9375C1.09139 7.3125 0.824725 6.55 0.824725 5.65C0.824725 4.56667 1.17473 3.725 1.87473 3.125C2.57473 2.525 3.29139 2.18333 4.02473 2.1V1C4.02473 0.716667 4.12056 0.479167 4.31223 0.2875C4.50389 0.0958333 4.74139 0 5.02473 0C5.30806 0 5.54556 0.0958333 5.73723 0.2875C5.92889 0.479167 6.02473 0.716667 6.02473 1V2.1C6.65806 2.2 7.20806 2.40417 7.67473 2.7125C8.14139 3.02083 8.52473 3.4 8.82473 3.85C8.97473 4.06667 9.00389 4.30833 8.91223 4.575C8.82056 4.84167 8.63306 5.03333 8.34973 5.15C8.11639 5.25 7.87473 5.25417 7.62473 5.1625C7.37473 5.07083 7.14139 4.90833 6.92473 4.675C6.70806 4.44167 6.45389 4.2625 6.16223 4.1375C5.87056 4.0125 5.50806 3.95 5.07473 3.95C4.34139 3.95 3.78306 4.1125 3.39973 4.4375C3.01639 4.7625 2.82473 5.16667 2.82473 5.65C2.82473 6.2 3.07473 6.63333 3.57473 6.95C4.07473 7.26667 4.94139 7.6 6.17473 7.95C7.32473 8.28333 8.19556 8.8125 8.78723 9.5375C9.37889 10.2625 9.67473 11.1 9.67473 12.05C9.67473 13.2333 9.32473 14.1333 8.62473 14.75C7.92473 15.3667 7.05806 15.75 6.02473 15.9V17C6.02473 17.2833 5.92889 17.5208 5.73723 17.7125C5.54556 17.9042 5.30806 18 5.02473 18Z" fill="white"/>
</svg>