<svg width="13" height="13" viewBox="0 0 13 13" fill="none" xmlns="http://www.w3.org/2000/svg">
    <path d="M6.5 13C5.39697 13 4.38258 12.7489 3.45682 12.2466C2.53106 11.7443 1.77273 11.0746 1.18182 10.2375V11.8182H0V8.27273H3.54545V9.45455H2.08295C2.55568 10.1636 3.1786 10.7348 3.9517 11.1682C4.72481 11.6015 5.57424 11.8182 6.5 11.8182C7.23864 11.8182 7.93049 11.6778 8.57557 11.3972C9.22064 11.1165 9.78201 10.7373 10.2597 10.2597C10.7373 9.78201 11.1165 9.22064 11.3972 8.57557C11.6778 7.93049 11.8182 7.23864 11.8182 6.5H13C13 7.39621 12.8301 8.23826 12.4903 9.02614C12.1506 9.81402 11.6852 10.5034 11.0943 11.0943C10.5034 11.6852 9.81402 12.1506 9.02614 12.4903C8.23826 12.8301 7.39621 13 6.5 13ZM5.96818 10.6364V9.86818C5.5053 9.75985 5.1286 9.56042 4.83807 9.26989C4.54754 8.97936 4.33333 8.59773 4.19545 8.125L5.17045 7.74091C5.28864 8.1447 5.4733 8.44754 5.72443 8.64943C5.97557 8.85133 6.26364 8.95227 6.58864 8.95227C6.91364 8.95227 7.19186 8.87595 7.4233 8.7233C7.65473 8.57064 7.77045 8.33182 7.77045 8.00682C7.77045 7.72121 7.64981 7.48977 7.40852 7.3125C7.16723 7.13523 6.73636 6.93333 6.11591 6.70682C5.53485 6.5 5.1089 6.25379 4.83807 5.96818C4.56723 5.68258 4.43182 5.30833 4.43182 4.84545C4.43182 4.44167 4.57216 4.07481 4.85284 3.74489C5.13352 3.41496 5.51515 3.20076 5.99773 3.10227V2.36364H7.03182V3.10227C7.38636 3.13182 7.7089 3.27462 7.99943 3.53068C8.28996 3.78674 8.48939 4.08712 8.59773 4.43182L7.65227 4.81591C7.57348 4.58939 7.44545 4.39981 7.26818 4.24716C7.09091 4.09451 6.8447 4.01818 6.52955 4.01818C6.18485 4.01818 5.9214 4.09205 5.7392 4.23977C5.55701 4.3875 5.46591 4.58939 5.46591 4.84545C5.46591 5.10152 5.57917 5.30341 5.80568 5.45114C6.0322 5.59886 6.44091 5.77121 7.03182 5.96818C7.74091 6.22424 8.21364 6.52462 8.45 6.86932C8.68636 7.21402 8.80455 7.59318 8.80455 8.00682C8.80455 8.29242 8.7553 8.54356 8.65682 8.76023C8.55833 8.97689 8.42784 9.16155 8.26534 9.3142C8.10284 9.46686 7.91326 9.58996 7.69659 9.68352C7.47992 9.77708 7.24848 9.84848 7.00227 9.89773V10.6364H5.96818ZM0 6.5C0 5.60379 0.169886 4.76174 0.509659 3.97386C0.849432 3.18598 1.31477 2.49659 1.90568 1.90568C2.49659 1.31477 3.18598 0.849432 3.97386 0.509659C4.76174 0.169886 5.60379 0 6.5 0C7.60303 0 8.61742 0.251136 9.54318 0.753409C10.4689 1.25568 11.2273 1.92538 11.8182 2.7625V1.18182H13V4.72727H9.45455V3.54545H10.917C10.4443 2.83636 9.8214 2.26515 9.0483 1.83182C8.27519 1.39848 7.42576 1.18182 6.5 1.18182C5.76136 1.18182 5.06951 1.32216 4.42443 1.60284C3.77936 1.88352 3.21799 2.26269 2.74034 2.74034C2.26269 3.21799 1.88352 3.77936 1.60284 4.42443C1.32216 5.06951 1.18182 5.76136 1.18182 6.5H0Z" fill="white"/>
</svg>


