<svg width="18" height="18" viewBox="0 0 18 18" fill="none" xmlns="http://www.w3.org/2000/svg">
<path d="M7.58317 15.4998C8.20817 14.2359 9.0415 13.3922 10.0832 12.9686C11.1248 12.545 12.0137 12.3332 12.7498 12.3332C13.0693 12.3332 13.3818 12.3609 13.6873 12.4165C13.9929 12.4721 14.2915 12.5415 14.5832 12.6248C14.9165 12.0971 15.1804 11.5276 15.3748 10.9165C15.5693 10.3054 15.6665 9.6665 15.6665 8.99984C15.6665 7.13873 15.0207 5.56234 13.729 4.27067C12.4373 2.979 10.8609 2.33317 8.99984 2.33317C7.13873 2.33317 5.56234 2.979 4.27067 4.27067C2.979 5.56234 2.33317 7.13873 2.33317 8.99984C2.33317 9.62484 2.41303 10.2221 2.57275 10.7915C2.73248 11.3609 2.97206 11.8887 3.2915 12.3748C3.86095 12.0971 4.45123 11.8818 5.06234 11.729C5.67345 11.5762 6.2915 11.4998 6.9165 11.4998C7.36095 11.4998 7.78803 11.538 8.19775 11.6144C8.60748 11.6908 9.01373 11.7915 9.4165 11.9165C9.09706 12.0832 8.79498 12.2776 8.51025 12.4998C8.22553 12.7221 7.95817 12.9582 7.70817 13.2082C7.5415 13.1804 7.39914 13.1665 7.28109 13.1665H6.9165C6.47206 13.1665 6.03109 13.2151 5.59359 13.3123C5.15609 13.4096 4.73595 13.5554 4.33317 13.7498C4.77761 14.1943 5.27414 14.5658 5.82275 14.8644C6.37136 15.163 6.95817 15.3748 7.58317 15.4998ZM8.99984 17.3332C7.84706 17.3332 6.76373 17.1144 5.74984 16.6769C4.73595 16.2394 3.854 15.6457 3.104 14.8957C2.354 14.1457 1.76025 13.2637 1.32275 12.2498C0.885254 11.2359 0.666504 10.1526 0.666504 8.99984C0.666504 7.84706 0.885254 6.76373 1.32275 5.74984C1.76025 4.73595 2.354 3.854 3.104 3.104C3.854 2.354 4.73595 1.76025 5.74984 1.32275C6.76373 0.885254 7.84706 0.666504 8.99984 0.666504C10.1526 0.666504 11.2359 0.885254 12.2498 1.32275C13.2637 1.76025 14.1457 2.354 14.8957 3.104C15.6457 3.854 16.2394 4.73595 16.6769 5.74984C17.1144 6.76373 17.3332 7.84706 17.3332 8.99984C17.3332 10.1526 17.1144 11.2359 16.6769 12.2498C16.2394 13.2637 15.6457 14.1457 14.8957 14.8957C14.1457 15.6457 13.2637 16.2394 12.2498 16.6769C11.2359 17.1144 10.1526 17.3332 8.99984 17.3332ZM6.9165 10.2498C6.11095 10.2498 5.42345 9.96511 4.854 9.39567C4.28456 8.82623 3.99984 8.13873 3.99984 7.33317C3.99984 6.52761 4.28456 5.84011 4.854 5.27067C5.42345 4.70123 6.11095 4.4165 6.9165 4.4165C7.72206 4.4165 8.40956 4.70123 8.979 5.27067C9.54845 5.84011 9.83317 6.52761 9.83317 7.33317C9.83317 8.13873 9.54845 8.82623 8.979 9.39567C8.40956 9.96511 7.72206 10.2498 6.9165 10.2498ZM6.9165 8.58317C7.26373 8.58317 7.55886 8.46164 7.80192 8.21859C8.04498 7.97553 8.1665 7.68039 8.1665 7.33317C8.1665 6.98595 8.04498 6.69081 7.80192 6.44775C7.55886 6.2047 7.26373 6.08317 6.9165 6.08317C6.56928 6.08317 6.27414 6.2047 6.03109 6.44775C5.78803 6.69081 5.6665 6.98595 5.6665 7.33317C5.6665 7.68039 5.78803 7.97553 6.03109 8.21859C6.27414 8.46164 6.56928 8.58317 6.9165 8.58317ZM12.7498 11.0832C12.1665 11.0832 11.6734 10.8818 11.2707 10.479C10.8679 10.0762 10.6665 9.58317 10.6665 8.99984C10.6665 8.4165 10.8679 7.92345 11.2707 7.52067C11.6734 7.11789 12.1665 6.9165 12.7498 6.9165C13.3332 6.9165 13.8262 7.11789 14.229 7.52067C14.6318 7.92345 14.8332 8.4165 14.8332 8.99984C14.8332 9.58317 14.6318 10.0762 14.229 10.479C13.8262 10.8818 13.3332 11.0832 12.7498 11.0832Z" fill="white"/>
</svg>
