<svg width="13" height="13" viewBox="0 0 13 13" fill="none" xmlns="http://www.w3.org/2000/svg">
<path d="M3.02763 4.46396L5.57632 0.323722C5.64474 0.210135 5.73026 0.127785 5.8329 0.076671C5.93553 0.025557 6.04386 0 6.1579 0C6.27193 0 6.38026 0.025557 6.48289 0.076671C6.58553 0.127785 6.67105 0.210135 6.73947 0.323722L9.28816 4.46396C9.35658 4.57754 9.39079 4.69681 9.39079 4.82176C9.39079 4.9467 9.36228 5.06029 9.30526 5.16252C9.24825 5.26474 9.16842 5.34709 9.06579 5.40957C8.96316 5.47204 8.84342 5.50328 8.70658 5.50328H3.60921C3.47237 5.50328 3.35263 5.47204 3.25 5.40957C3.14737 5.34709 3.06754 5.26474 3.01053 5.16252C2.95351 5.06029 2.925 4.9467 2.925 4.82176C2.925 4.69681 2.95921 4.57754 3.02763 4.46396ZM9.92105 13C9.06579 13 8.33882 12.7018 7.74013 12.1055C7.14145 11.5092 6.84211 10.7851 6.84211 9.93316C6.84211 9.08126 7.14145 8.35714 7.74013 7.76081C8.33882 7.16448 9.06579 6.86632 9.92105 6.86632C10.7763 6.86632 11.5033 7.16448 12.102 7.76081C12.7007 8.35714 13 9.08126 13 9.93316C13 10.7851 12.7007 11.5092 12.102 12.1055C11.5033 12.7018 10.7763 13 9.92105 13ZM0 11.9777V7.8886C0 7.6955 0.0655702 7.53364 0.196711 7.40301C0.327851 7.27239 0.490351 7.20708 0.684211 7.20708H4.78947C4.98333 7.20708 5.14583 7.27239 5.27697 7.40301C5.40811 7.53364 5.47368 7.6955 5.47368 7.8886V11.9777C5.47368 12.1708 5.40811 12.3327 5.27697 12.4633C5.14583 12.5939 4.98333 12.6592 4.78947 12.6592H0.684211C0.490351 12.6592 0.327851 12.5939 0.196711 12.4633C0.0655702 12.3327 0 12.1708 0 11.9777ZM9.92105 11.637C10.4 11.637 10.8048 11.4723 11.1355 11.1429C11.4662 10.8135 11.6316 10.4102 11.6316 9.93316C11.6316 9.45609 11.4662 9.05286 11.1355 8.72346C10.8048 8.39406 10.4 8.22936 9.92105 8.22936C9.44211 8.22936 9.03728 8.39406 8.70658 8.72346C8.37588 9.05286 8.21053 9.45609 8.21053 9.93316C8.21053 10.4102 8.37588 10.8135 8.70658 11.1429C9.03728 11.4723 9.44211 11.637 9.92105 11.637ZM1.36842 11.2962H4.10526V8.57012H1.36842V11.2962ZM4.82368 4.14024H7.49211L6.1579 1.99345L4.82368 4.14024Z" fill="white"/>
</svg>
