<svg width="16" height="20" viewBox="0 0 16 20" fill="none" xmlns="http://www.w3.org/2000/svg">
<path d="M8 10.9999C7.01667 10.9999 6.1875 10.6624 5.5125 9.9874C4.8375 9.3124 4.5 8.48324 4.5 7.4999C4.5 6.51657 4.8375 5.6874 5.5125 5.0124C6.1875 4.3374 7.01667 3.9999 8 3.9999C8.98333 3.9999 9.8125 4.3374 10.4875 5.0124C11.1625 5.6874 11.5 6.51657 11.5 7.4999C11.5 8.48324 11.1625 9.3124 10.4875 9.9874C9.8125 10.6624 8.98333 10.9999 8 10.9999ZM8 8.9999C8.43333 8.9999 8.79167 8.85824 9.075 8.5749C9.35833 8.29157 9.5 7.93324 9.5 7.4999C9.5 7.06657 9.35833 6.70824 9.075 6.4249C8.79167 6.14157 8.43333 5.9999 8 5.9999C7.56667 5.9999 7.20833 6.14157 6.925 6.4249C6.64167 6.70824 6.5 7.06657 6.5 7.4999C6.5 7.93324 6.64167 8.29157 6.925 8.5749C7.20833 8.85824 7.56667 8.9999 8 8.9999ZM8 2.1249L2 4.3749V9.0999C2 9.9999 2.125 10.8749 2.375 11.7249C2.625 12.5749 2.96667 13.3749 3.4 14.1249C4.1 13.7749 4.83333 13.4999 5.6 13.2999C6.36667 13.0999 7.16667 12.9999 8 12.9999C8.83333 12.9999 9.63333 13.0999 10.4 13.2999C11.1667 13.4999 11.9 13.7749 12.6 14.1249C13.0333 13.3749 13.375 12.5749 13.625 11.7249C13.875 10.8749 14 9.9999 14 9.0999V4.3749L8 2.1249ZM8 14.9999C7.4 14.9999 6.81667 15.0666 6.25 15.1999C5.68333 15.3332 5.14167 15.5166 4.625 15.7499C5.10833 16.2499 5.63333 16.6832 6.2 17.0499C6.76667 17.4166 7.36667 17.6999 8 17.8999C8.63333 17.6999 9.23333 17.4166 9.8 17.0499C10.3667 16.6832 10.8917 16.2499 11.375 15.7499C10.8583 15.5166 10.3167 15.3332 9.75 15.1999C9.18333 15.0666 8.6 14.9999 8 14.9999ZM8 19.8999C7.88333 19.8999 7.775 19.8916 7.675 19.8749C7.575 19.8582 7.475 19.8332 7.375 19.7999C5.125 19.0499 3.33333 17.6624 2 15.6374C0.666667 13.6124 0 11.4332 0 9.0999V4.3749C0 3.95824 0.120833 3.58324 0.3625 3.2499C0.604167 2.91657 0.916667 2.6749 1.3 2.5249L7.3 0.274902C7.53333 0.191569 7.76667 0.149902 8 0.149902C8.23333 0.149902 8.46667 0.191569 8.7 0.274902L14.7 2.5249C15.0833 2.6749 15.3958 2.91657 15.6375 3.2499C15.8792 3.58324 16 3.95824 16 4.3749V9.0999C16 11.4332 15.3333 13.6124 14 15.6374C12.6667 17.6624 10.875 19.0499 8.625 19.7999C8.525 19.8332 8.425 19.8582 8.325 19.8749C8.225 19.8916 8.11667 19.8999 8 19.8999Z" fill="white"/>
</svg>
