<svg width="15" height="12" viewBox="0 0 15 12" fill="none" xmlns="http://www.w3.org/2000/svg">
<path d="M8.86364 6.75C8.29545 6.75 7.8125 6.53125 7.41477 6.09375C7.01705 5.65625 6.81818 5.125 6.81818 4.5C6.81818 3.875 7.01705 3.34375 7.41477 2.90625C7.8125 2.46875 8.29545 2.25 8.86364 2.25C9.43182 2.25 9.91477 2.46875 10.3125 2.90625C10.7102 3.34375 10.9091 3.875 10.9091 4.5C10.9091 5.125 10.7102 5.65625 10.3125 6.09375C9.91477 6.53125 9.43182 6.75 8.86364 6.75ZM4.09091 9C3.71591 9 3.39489 8.85313 3.12784 8.55938C2.8608 8.26562 2.72727 7.9125 2.72727 7.5V1.5C2.72727 1.0875 2.8608 0.734375 3.12784 0.440625C3.39489 0.146875 3.71591 0 4.09091 0H13.6364C14.0114 0 14.3324 0.146875 14.5994 0.440625C14.8665 0.734375 15 1.0875 15 1.5V7.5C15 7.9125 14.8665 8.26562 14.5994 8.55938C14.3324 8.85313 14.0114 9 13.6364 9H4.09091ZM5.45455 7.5H12.2727C12.2727 7.0875 12.4062 6.73438 12.6733 6.44063C12.9403 6.14688 13.2614 6 13.6364 6V3C13.2614 3 12.9403 2.85313 12.6733 2.55938C12.4062 2.26562 12.2727 1.9125 12.2727 1.5H5.45455C5.45455 1.9125 5.32102 2.26562 5.05398 2.55938C4.78693 2.85313 4.46591 3 4.09091 3V6C4.46591 6 4.78693 6.14688 5.05398 6.44063C5.32102 6.73438 5.45455 7.0875 5.45455 7.5ZM12.2727 12H1.36364C0.988636 12 0.667614 11.8531 0.400568 11.5594C0.133523 11.2656 0 10.9125 0 10.5V3C0 2.7875 0.0653409 2.60938 0.196023 2.46563C0.326705 2.32188 0.488636 2.25 0.681818 2.25C0.875 2.25 1.03693 2.32188 1.16761 2.46563C1.2983 2.60938 1.36364 2.7875 1.36364 3V10.5H12.2727C12.4659 10.5 12.6278 10.5719 12.7585 10.7156C12.8892 10.8594 12.9545 11.0375 12.9545 11.25C12.9545 11.4625 12.8892 11.6406 12.7585 11.7844C12.6278 11.9281 12.4659 12 12.2727 12Z" fill="white"/>
</svg>
