<svg width="11" height="13" viewBox="0 0 11 13" fill="none" xmlns="http://www.w3.org/2000/svg">
<path d="M7.18954 10.4812L10.0366 7.26375C10.142 7.14458 10.2763 7.085 10.4392 7.085C10.6022 7.085 10.7364 7.14458 10.8418 7.26375C10.9473 7.38292 11 7.53458 11 7.71875C11 7.90292 10.9473 8.05458 10.8418 8.17375L7.59216 11.8462C7.47712 11.9762 7.34292 12.0412 7.18954 12.0412C7.03617 12.0412 6.90196 11.9762 6.78693 11.8462L5.14771 9.99375C5.04227 9.87458 4.98954 9.72292 4.98954 9.53875C4.98954 9.35458 5.04227 9.20292 5.14771 9.08375C5.25316 8.96458 5.38736 8.905 5.55033 8.905C5.71329 8.905 5.84749 8.96458 5.95294 9.08375L7.18954 10.4812ZM1.15033 13C0.833987 13 0.563181 12.8727 0.337909 12.6181C0.112636 12.3635 0 12.0575 0 11.7V2.6C0 2.2425 0.112636 1.93646 0.337909 1.68187C0.563181 1.42729 0.833987 1.3 1.15033 1.3H3.55163C3.65708 0.920833 3.86318 0.609375 4.16993 0.365625C4.47669 0.121875 4.8122 0 5.17647 0C5.55991 0 5.90261 0.121875 6.20458 0.365625C6.50654 0.609375 6.71024 0.920833 6.81569 1.3H9.20261C9.51895 1.3 9.78976 1.42729 10.015 1.68187C10.2403 1.93646 10.3529 2.2425 10.3529 2.6V5.2C10.3529 5.38417 10.2978 5.53854 10.1876 5.66312C10.0773 5.78771 9.94074 5.85 9.77778 5.85C9.61481 5.85 9.47821 5.78771 9.36797 5.66312C9.25773 5.53854 9.20261 5.38417 9.20261 5.2V2.6H8.05229V3.9C8.05229 4.08417 7.99717 4.23854 7.88693 4.36312C7.77669 4.48771 7.64009 4.55 7.47712 4.55H2.87582C2.71285 4.55 2.57625 4.48771 2.46601 4.36312C2.35577 4.23854 2.30065 4.08417 2.30065 3.9V2.6H1.15033V11.7H4.02614C4.18911 11.7 4.32571 11.7623 4.43595 11.8869C4.54619 12.0115 4.60131 12.1658 4.60131 12.35C4.60131 12.5342 4.54619 12.6885 4.43595 12.8131C4.32571 12.9377 4.18911 13 4.02614 13H1.15033ZM5.17647 2.6C5.33943 2.6 5.47604 2.53771 5.58627 2.41312C5.69651 2.28854 5.75163 2.13417 5.75163 1.95C5.75163 1.76583 5.69651 1.61146 5.58627 1.48687C5.47604 1.36229 5.33943 1.3 5.17647 1.3C5.01351 1.3 4.87691 1.36229 4.76667 1.48687C4.65643 1.61146 4.60131 1.76583 4.60131 1.95C4.60131 2.13417 4.65643 2.28854 4.76667 2.41312C4.87691 2.53771 5.01351 2.6 5.17647 2.6Z" fill="white"/>
</svg>
